# xmcd
#
# Track frame offsets: 
#        225
#        24766
#        43710
#        64493
#        82681
#        99401
#        117910
#        140387
#        161940
#        182626
#        204005
#        218890
#        237304
#        259224
#        278622
#        296875
#        319599
#
# Disc length: 4579 seconds
#
# Revision: 4
# Processed by: cddbd v1.5.2PL0 Copyright (c) Steve Scherf et al.
# Submitted via: ExactAudioCopy v1.3
#
DISCID=f011e011
DTITLE=Various Artist - The Heart and Soul of Philadelphia
DYEAR=1998
DGENRE=Soul
TTITLE0=Teddy Pendergrass  - Close the Door
TTITLE1=The O'Jays  - Brandy
TTITLE2=Shirley Jones - Do you get enough Love
TTITLE3=Lou Rawls - Lady Love
TTITLE4=Billy Paul - Your my Sweetness
TTITLE5=Dee Dee Sharp Gamble - Trying to get the Feeling again
TTITLE6=Teddy Pendergrass - Love T.K.O
TTITLE7=Shirley Jones - Last Night I needed somebody
TTITLE8=Phyllis Hyman - Slow Dancin'
TTITLE9=Patti LaBelle - If only you knew
TTITLE10=Billy Paul - Without you
TTITLE11=Jerry Butler - The Best Love I ever had
TTITLE12=Jean Carn - Don't let it go to your Head
TTITLE13=The Stylistics - I have you, you have me
TTITLE14=Jerry Butler - Reach our for me
TTITLE15=Jean Carn - We got some catching up to do
TTITLE16=The O'Jays - Lovin' you
EXTD=YEAR: 1998
EXTT0=
EXTT1=
EXTT2=
EXTT3=
EXTT4=
EXTT5=
EXTT6=
EXTT7=
EXTT8=
EXTT9=
EXTT10=
EXTT11=
EXTT12=
EXTT13=
EXTT14=
EXTT15=
EXTT16=
PLAYORDER=
